<?xml version="1.0" standalone="no"?>
<!DOCTYPE svg PUBLIC "-//W3C//DTD SVG 20010904//EN"
 "http://www.w3.org/TR/2001/REC-SVG-20010904/DTD/svg10.dtd">
<svg version="1.0" xmlns="http://www.w3.org/2000/svg"
 width="249.000000pt" height="249.000000pt" viewBox="0 0 249.000000 249.000000"
 preserveAspectRatio="xMidYMid meet">
<metadata>
Created by potrace 1.16, written by Peter Selinger 2001-2019
</metadata>
<g transform="translate(0.000000,249.000000) scale(0.100000,-0.100000)"
fill="#000000" stroke="none">
<path d="M440 2475 c0 -11 -11 -15 -40 -15 l-40 0 7 -46 c6 -45 6 -45 -21 -38
-25 6 -26 5 -26 -36 0 -33 -8 -53 -35 -90 -34 -46 -47 -76 -23 -52 19 19 30
14 18 -7 -5 -11 -10 -35 -10 -55 0 -19 -5 -47 -10 -62 -12 -30 -6 -44 12 -26
20 20 28 13 28 -25 0 -44 13 -69 29 -59 7 5 11 -2 11 -17 0 -18 -8 -28 -31
-37 -92 -39 -222 -144 -280 -227 l-29 -42 0 -446 0 -446 53 41 c61 49 305 210
317 210 4 0 11 -7 14 -16 3 -8 2 -13 -2 -10 -5 3 -17 -15 -27 -40 -10 -24 -22
-44 -26 -44 -5 0 -5 -7 -2 -17 4 -10 2 -14 -5 -9 -6 4 -26 -13 -46 -39 -19
-25 -37 -45 -40 -43 -3 2 -17 -14 -31 -34 -14 -21 -29 -38 -34 -38 -22 0 -137
-116 -153 -154 -18 -45 -26 -224 -8 -196 7 12 12 12 22 2 6 -6 19 -12 28 -13
9 0 31 -33 55 -82 41 -84 73 -110 67 -54 -2 24 0 28 15 23 10 -3 39 -10 64
-15 64 -14 101 -29 124 -51 11 -10 40 -25 65 -33 78 -27 111 -48 143 -93 l31
-44 143 0 c129 0 143 2 152 19 12 21 35 31 141 62 41 11 86 27 100 34 40 22
116 55 123 55 4 0 -5 -24 -20 -52 -37 -70 -36 -68 -26 -68 14 0 77 100 102
163 26 64 54 90 89 80 18 -4 21 -10 16 -27 -15 -49 -79 -174 -111 -219 l-34
-48 36 3 c34 3 39 8 76 78 154 293 247 552 250 697 0 21 3 31 6 23 3 -8 15
-25 26 -37 20 -22 20 -24 2 -115 -22 -117 -49 -206 -85 -283 -15 -33 -51 -112
-79 -175 -28 -63 -60 -132 -70 -152 -16 -31 -17 -38 -5 -38 37 0 197 401 254
635 13 55 21 71 37 73 40 6 49 -23 29 -96 -10 -37 -24 -80 -31 -97 -8 -16 -28
-79 -46 -140 -17 -60 -58 -168 -91 -238 -33 -70 -58 -131 -54 -134 3 -3 9 3
12 13 4 10 36 80 71 154 35 73 66 145 70 160 8 37 79 249 97 293 12 26 23 37
37 37 25 0 25 -7 -15 -155 -36 -134 -79 -250 -136 -365 -60 -119 -66 -140 -46
-140 9 0 16 6 16 13 0 7 20 55 45 106 25 51 57 123 71 159 52 137 92 258 98
294 7 39 26 62 26 31 0 -15 2 -16 10 -3 18 26 4 -161 -15 -205 -9 -22 -37 -94
-62 -160 -25 -66 -56 -141 -69 -167 -30 -60 -30 -70 2 -66 23 3 33 18 78 118
29 63 63 144 75 180 13 36 28 78 34 95 l11 29 6 -24 c4 -18 12 -25 28 -24 12
1 22 -3 22 -8 0 -5 8 -8 18 -6 15 3 17 -6 15 -87 -1 -59 -10 -120 -26 -178
-14 -51 -20 -90 -15 -93 16 -10 24 6 57 108 28 89 31 109 31 230 0 233 37 305
135 268 20 -7 25 -15 21 -27 -8 -20 48 -158 78 -191 28 -31 80 -28 82 5 1 12
-2 20 -7 17 -5 -3 -6 2 -3 10 8 21 16 15 53 -41 l31 -46 0 96 c0 56 -4 98 -11
102 -10 7 -60 110 -73 152 -7 23 -49 46 -253 137 -56 25 -107 46 -113 46 -31
0 0 22 73 51 77 31 90 33 202 33 66 0 132 -3 148 -7 l27 -7 0 176 0 177 -42
-6 c-228 -29 -384 -76 -532 -158 -47 -27 -65 -19 -85 39 -9 24 -24 45 -38 51
-26 12 -25 37 7 101 21 42 29 103 40 270 6 111 11 132 39 189 17 36 31 72 31
81 0 9 5 21 12 28 7 7 8 12 3 12 -6 0 -4 4 4 9 10 6 11 13 2 29 -14 26 -14 62
-1 62 6 0 10 -4 10 -10 0 -5 5 -10 11 -10 7 0 10 28 8 85 -4 85 2 100 29 73 6
-6 14 -9 18 -6 7 7 -41 104 -56 113 -20 12 11 35 46 35 43 0 45 22 4 47 -37
21 -37 26 -2 52 l27 20 -42 7 c-24 3 -43 10 -43 15 0 5 3 9 8 9 4 0 16 7 26
15 16 12 17 17 6 30 -11 13 -103 15 -776 15 -672 0 -764 -2 -764 -15z m1045
-311 c140 -18 180 -34 255 -103 l55 -50 -75 -34 c-41 -19 -77 -33 -79 -31 -2
1 14 24 34 49 21 25 35 49 31 53 -11 11 -61 -55 -102 -135 -41 -80 -41 -93 -4
-218 35 -114 34 -111 6 -140 -36 -35 -33 -47 11 -43 33 3 37 7 49 47 14 47 13
51 -21 126 -46 101 -42 113 24 95 96 -25 132 -29 138 -11 11 36 24 63 28 59 3
-2 -4 -26 -14 -54 -13 -34 -20 -90 -24 -184 -8 -168 -23 -227 -91 -349 -29
-53 -60 -109 -68 -126 -70 -139 -118 -224 -119 -209 0 12 -3 14 -6 6 -4 -10
-8 -10 -19 -1 -12 9 -14 5 -14 -25 0 -20 -4 -36 -10 -36 -5 0 -10 12 -10 26 0
14 -4 23 -9 19 -5 -3 -12 3 -15 12 -2 10 -2 1 1 -19 4 -33 3 -38 -14 -38 -19
0 -43 36 -43 65 0 26 -16 16 -32 -18 -18 -38 -48 -45 -49 -13 0 21 -1 21 -9 1
-8 -18 -9 -17 -9 8 -1 15 -5 27 -10 27 -5 0 -12 8 -15 18 -3 9 -3 0 0 -20 6
-48 -8 -49 -52 -3 -20 21 -34 30 -37 22 -3 -9 -9 -8 -23 4 -10 9 -27 19 -37
22 -10 4 -16 11 -13 16 3 5 -3 7 -14 4 -14 -4 -20 0 -20 11 0 10 -5 14 -10 11
-6 -3 -13 1 -16 10 -6 13 -8 14 -15 3 -6 -9 -9 -7 -9 9 0 12 -5 25 -11 29 -8
4 -9 0 -4 -15 3 -11 3 -21 0 -21 -13 0 -35 29 -36 47 -1 17 -2 17 -6 1 -2 -10
-6 -18 -9 -18 -15 0 -112 74 -110 83 2 7 1 9 -1 5 -10 -17 -25 -7 -20 13 4 17
3 18 -9 8 -12 -10 -13 -9 -8 5 7 19 -11 22 -20 4 -4 -7 -4 -3 -2 10 2 12 0 22
-5 22 -5 0 -9 -5 -9 -10 0 -6 -11 -3 -25 6 -16 10 -25 26 -26 43 0 14 -3 20
-6 14 -14 -36 -39 17 -48 102 -4 33 -8 62 -10 66 -8 12 -24 132 -19 141 3 4
19 -1 35 -13 17 -12 33 -18 36 -15 4 3 0 6 -8 6 -10 1 -8 5 5 15 16 12 17 18
8 27 -7 7 -12 29 -12 49 0 21 -4 40 -8 43 -4 2 -6 24 -4 47 l4 43 15 -28 c28
-54 23 -18 -7 45 -36 77 -40 146 -11 193 20 31 144 156 156 156 3 0 25 9 48
19 23 11 65 22 92 25 33 4 42 3 25 -3 -22 -7 -23 -9 -7 -16 26 -11 21 -19 -25
-41 l-43 -19 40 -3 c39 -3 76 -22 43 -22 -9 0 -20 -5 -23 -11 -5 -7 9 -10 44
-8 28 2 54 0 57 -4 4 -4 0 -7 -9 -7 -9 0 -17 -3 -17 -7 0 -5 36 -9 81 -11 111
-3 122 -16 19 -22 l-85 -5 -2 -35 c-2 -29 -1 -31 5 -10 l8 24 13 -31 c7 -17
24 -35 37 -42 40 -18 47 -13 18 12 -16 14 -24 29 -20 35 12 20 81 14 101 -8
12 -13 14 -20 5 -20 -6 0 -10 -6 -7 -14 3 -7 0 -19 -6 -25 -8 -8 1 -11 34 -11
53 0 72 -10 59 -30 -15 -24 -11 -31 10 -18 11 7 20 21 20 30 0 10 6 17 13 15
6 -1 12 5 12 13 0 8 4 21 9 28 5 9 1 19 -10 28 -18 15 -18 15 1 8 11 -4 37 -9
57 -12 37 -4 38 -3 58 44 20 46 20 49 3 96 -9 26 -21 48 -25 48 -8 0 -3 -50 9
-94 4 -14 1 -18 -11 -13 -9 4 -15 3 -15 -1 3 -21 -5 -20 -41 3 -22 14 -43 25
-47 25 -5 0 -44 35 -88 76 l-80 76 85 -7 c47 -3 139 -13 205 -21z m-960 -256
c8 -13 24 -51 35 -85 10 -34 28 -80 39 -103 10 -22 22 -59 26 -82 7 -39 6 -41
-9 -29 -17 14 -23 2 -7 -14 14 -15 -6 -54 -33 -67 -22 -9 -31 -7 -64 14 -56
38 -115 101 -140 152 l-22 44 19 49 c21 53 64 122 84 135 23 15 56 8 72 -14z
m-180 -288 c23 -33 26 -46 20 -76 -6 -34 -5 -36 14 -31 25 6 26 -3 6 -68 -15
-51 -13 -65 11 -65 9 0 14 -11 14 -35 0 -19 5 -35 10 -35 6 0 8 -10 6 -22 -45
-212 -47 -218 -92 -195 -49 25 -141 186 -151 265 -9 69 12 205 38 245 44 67
85 73 124 17z m248 -444 l37 -49 1 -116 c0 -64 4 -147 8 -186 29 -244 61 -675
52 -691 -10 -18 -69 4 -88 34 -9 15 -24 36 -34 47 -19 23 -30 76 -31 153 0 29
-4 55 -9 58 -12 7 -11 -147 0 -165 5 -7 5 -29 0 -49 -5 -24 -4 -41 3 -50 6 -7
-15 -1 -48 14 -32 14 -97 42 -142 61 -99 40 -189 89 -194 106 -3 7 -3 31 0 54
3 36 11 48 46 75 22 18 43 36 44 40 2 5 9 8 16 8 8 0 20 -28 29 -66 21 -85 47
-126 103 -164 63 -42 122 -71 127 -62 3 4 -3 36 -13 72 -64 229 -81 364 -59
460 6 25 14 99 20 165 14 196 27 359 28 368 1 5 6 5 12 1 11 -6 11 -17 -5
-164 l-5 -45 13 50 c8 28 15 73 15 100 1 28 7 68 13 90 l12 40 6 -70 c5 -62
11 -77 43 -119z m117 -211 c14 -22 36 -65 50 -95 31 -70 50 -101 59 -95 4 2
18 -26 30 -63 28 -80 61 -149 108 -218 34 -52 83 -162 83 -187 0 -24 -50 -82
-94 -107 -24 -14 -65 -49 -91 -77 -72 -81 -115 -71 -115 27 0 78 -38 543 -49
609 -19 110 -31 200 -31 236 0 42 8 37 50 -30z m804 -319 c22 -47 20 -83 -10
-166 -14 -39 -23 -78 -20 -88 4 -13 -4 -22 -34 -35 -22 -9 -44 -17 -49 -17 -5
0 -30 -23 -56 -52 l-47 -52 7 49 c12 84 114 375 131 375 3 0 2 -4 -1 -10 -11
-18 11 -10 30 10 25 27 30 25 49 -14z"/>
<path d="M1392 1364 c-74 -19 -147 -52 -168 -75 -21 -23 -25 -24 71 6 63 20
102 25 180 25 112 0 141 -11 147 -58 l4 -27 12 29 c11 24 9 33 -9 63 -20 32
-24 34 -59 28 -21 -4 -47 -2 -57 3 -36 18 -69 20 -121 6z"/>
</g>
</svg>
